# xmcd
#
# Track frame offsets: 
#        150
#        17258
#        33826
#        53954
#        67620
#        84503
#        97099
#        108688
#        123196
#        137267
#        153177
#
# Disc length: 2125 seconds
#
# Revision: 0
# Processed by: cddbd v1.5.2PL0 Copyright (c) Steve Scherf et al.
# Submitted via: ExactAudioCopy v1.0b4
#
DISCID=79084b0b
DTITLE=Saul Kaye - Jewish Blues Vol. IV
DYEAR=2016
DGENRE=Blues
TTITLE0=Abraham's Restaurant
TTITLE1=The Rebbetzen's Lament
TTITLE2=Sweet Rebecca
TTITLE3=In My Time of Dying
TTITLE4=Zimri's Lament
TTITLE5=Cain
TTITLE6=Ein Keloheinu
TTITLE7=America the Beautiful
TTITLE8=I Want Hashem to Walk with Me
TTITLE9=Shema Lullaby
TTITLE10=Going Home
EXTD=
EXTT0=
EXTT1=
EXTT2=
EXTT3=
EXTT4=
EXTT5=
EXTT6=
EXTT7=
EXTT8=
EXTT9=
EXTT10=
PLAYORDER=
